<?xml version="1.0" encoding="UTF-8"?>
<svg width="222px" height="26px" viewBox="0 0 222 26" version="1.1" xmlns="http://www.w3.org/2000/svg" xmlns:xlink="http://www.w3.org/1999/xlink">
    <title>PacificWerribeeNewBlackSVG</title>
    <g id="Page-1" stroke="none" stroke-width="1" fill="none" fill-rule="evenodd">
        <g id="1.Home" transform="translate(-619.000000, -805.000000)" fill="#000000">
            <g id="Group-5" transform="translate(-13.455446, 763.000000)">
                <g id="PacificWerribeeNewBlackSVG" transform="translate(632.455446, 42.000000)">
                    <path d="M216.993011,8.6766635 C217.575779,8.6766635 218.274279,9.1035871 218.274279,10.2696883 C218.274279,11.5892704 217.692685,13.2199303 217.070557,14.8141313 C216.488376,16.3283575 215.752279,17.3374497 214.043922,17.3374497 C213.500515,17.3374497 212.80319,17.1827928 212.414874,16.9499254 C214.005737,11.512824 215.170686,8.6766635 216.993011,8.6766635 Z M214.510959,17.8043606 C218.003456,17.8043606 222,16.2507351 222,12.2108382 C222,9.60872122 219.439815,8.21034062 217.188051,8.21034062 C212.26037,8.05509567 206.749921,14.4260189 206.749921,19.5920297 C206.749921,23.0085946 208.88478,26 213.0746,26 C216.217554,26 218.701955,24.4863618 220.332766,21.9601031 L219.826956,21.6896006 C218.468143,23.7465961 216.257501,25.3008097 213.85182,25.3008097 C212.377276,25.3008097 211.405604,24.2905415 211.405604,22.6986927 C211.405604,21.0286335 211.756323,19.2803637 212.22101,17.4944588 C212.919509,17.7267381 214.084458,17.8043606 214.510959,17.8043606 L214.510959,17.8043606 Z M201.396326,14.8141313 C200.814733,16.3283575 200.076874,17.3374497 198.368517,17.3374497 C197.825109,17.3374497 197.127785,17.1827928 196.738881,16.9499254 C198.330332,11.512824 199.49528,8.6766635 201.317606,8.6766635 C201.899199,8.6766635 202.597698,9.1035871 202.597698,10.2696883 C202.597698,11.5892704 202.016105,13.2199303 201.396326,14.8141313 L201.396326,14.8141313 Z M201.51147,8.21034062 C196.582615,8.05509567 191.075103,14.4260189 191.075103,19.5920297 C191.075103,23.0085946 193.208787,26 197.39802,26 C200.542736,26 203.0242,24.4863618 204.655011,21.9601031 L204.150963,21.6896006 C202.793325,23.7465961 200.580921,25.3008097 198.174065,25.3008097 C196.699521,25.3008097 195.730786,24.2905415 195.730786,22.6986927 C195.730786,21.0286335 196.078567,19.2803637 196.545017,17.4944588 C197.243516,17.7267381 198.407877,17.8043606 198.834379,17.8043606 C202.326876,17.8043606 206.32342,16.2507351 206.32342,12.2108382 C206.32342,9.60872122 203.760885,8.21034062 201.51147,8.21034062 L201.51147,8.21034062 Z M183.509104,19.319763 C181.724964,24.2123309 180.365564,25.3008097 178.230706,25.3008097 C177.184425,25.3008097 175.864972,24.5633962 175.864972,22.1559235 C175.864972,21.610214 176.020064,20.8733885 176.214516,20.0965757 C176.641017,18.3865292 177.340692,15.6685665 177.88175,14.1531642 C178.890432,11.4340254 181.919416,8.90953092 183.664196,8.90953092 C184.440241,8.90953092 185.41015,9.49287556 185.41015,10.7742344 C185.41015,12.6001267 184.906103,15.5121455 183.509104,19.319763 L183.509104,19.319763 Z M184.36152,8.21034062 C181.955839,8.21034062 179.976073,9.84276474 178.695393,11.6680689 L178.619609,11.6286697 L181.915304,0 C181.39892,0.412810422 180.743893,0.804451079 179.282273,1.02379337 C178.640171,1.10141584 177.855901,1.15904465 176.988798,1.19079929 C176.781422,1.19609174 176.593433,1.20373637 176.366082,1.20373637 L174.534945,1.20373637 C173.013403,1.16433709 171.513598,1.03673045 170.427957,0.771520333 L170.42267,0.793866196 C170.316338,0.780929117 170.211181,0.76093545 170.100738,0.76093545 C168.622875,0.764172886 167.425908,1.96311261 167.423646,3.44243905 C167.426881,4.92078936 168.623846,6.11815048 170.100738,6.12041435 C171.575282,6.12041435 172.779591,4.91785407 172.779591,3.441851 C172.779591,2.77559144 172.525805,2.17401728 172.122802,1.70475415 C173.195518,1.82001176 174.382791,1.87705252 175.548915,1.87705252 C175.85851,1.87705252 176.161644,1.86999593 176.46184,1.86352739 L173.145584,13.803863 C172.486445,16.0172796 171.904851,18.3106708 171.904851,20.0583526 C171.904851,22.4646492 174.271759,26 178.385797,26 C184.670528,26 189.832609,20.5628986 189.832609,14.1137649 C189.832609,10.8524449 188.087242,8.21034062 184.36152,8.21034062 Z M166.978933,21.6890125 C166.745121,22.5052246 166.396165,23.4355182 166.396165,23.7865834 C166.396165,24.4463745 166.70811,24.6016194 167.094664,24.6016194 C168.335984,24.6016194 169.966795,22.3111684 170.393884,21.4555571 L170.937292,21.7672231 C169.851651,23.6695617 168.065749,26 165.542574,26 C161.973707,26 161.973707,23.0879812 161.973707,22.7763152 C161.973707,22.1559235 162.206344,21.2620889 162.438394,20.4852762 L165.893293,9.3758538 L163.487612,9.3758538 L163.641528,8.6766635 L167.638072,8.6766635 C169.499758,8.6766635 170.433244,8.36676166 171.209289,7.82105216 L166.978933,21.6890125 Z M162.713329,10.9294794 C162.713329,12.4448817 161.664111,13.803863 159.802426,13.803863 C158.364892,13.803863 157.357972,12.8329941 157.357972,11.3963903 C157.357972,10.3079115 158.210975,9.57049803 158.210975,9.49287556 C158.210975,9.37644185 158.133429,9.37644185 158.057646,9.37644185 C157.201705,9.37644185 154.136885,13.144072 153.8643,14.1137649 L150.566843,25.5354413 L145.60039,25.5354413 L150.411751,9.3758538 L148.005483,9.3758538 L148.161749,8.6766635 L152.157119,8.6766635 C154.019979,8.6766635 154.952291,8.36499751 155.727161,7.8228163 L154.291977,12.1332157 L154.368935,12.1332157 C155.455163,10.5407789 157.397332,8.21151671 159.685519,8.21151671 C161.354516,8.21151671 162.713329,8.98832949 162.713329,10.9294794 Z M144.90189,13.803863 C143.466119,13.803863 142.458024,12.8329941 142.458024,11.3963903 C142.458024,10.3079115 143.311615,9.57049803 143.311615,9.49287556 C143.311615,9.37644185 143.234069,9.37644185 143.156523,9.37644185 C142.301757,9.37644185 139.237525,13.144072 138.963765,14.1137649 L135.667483,25.5354413 L130.700442,25.5354413 L135.512391,9.3758538 L133.107298,9.3758538 L133.260627,8.6766635 L137.258346,8.6766635 C139.121794,8.6766635 140.05293,8.36499751 140.828388,7.8228163 L139.392616,12.1332157 L139.47075,12.1332157 C140.556978,10.5407789 142.496209,8.21151671 144.786159,8.21151671 C146.454568,8.21151671 147.812206,8.98832949 147.812206,10.9294794 C147.812206,12.4448817 146.764751,13.803863 144.90189,13.803863 L144.90189,13.803863 Z M126.779681,8.6766635 C127.362449,8.6766635 128.061536,9.1035871 128.061536,10.2696883 C128.061536,11.5892704 127.479355,13.2199303 126.858402,14.8141313 C126.276809,16.3283575 125.538949,17.3374497 123.83353,17.3374497 C123.288359,17.3374497 122.591035,17.1827928 122.201544,16.9499254 C123.794169,11.512824 124.957356,8.6766635 126.779681,8.6766635 L126.779681,8.6766635 Z M124.299979,17.8043606 C127.793063,17.8043606 131.789607,16.2507351 131.789607,12.2108382 C131.789607,9.60872122 129.226485,8.21034062 126.977658,8.21034062 C122.048802,8.05509567 116.537766,14.4260189 116.537766,19.5920297 C116.537766,23.0085946 118.674387,26 122.862445,26 C126.005986,26 128.4898,24.4863618 130.120611,21.9601031 L129.615976,21.6896006 C128.25775,23.7465961 126.046521,25.3008097 123.64084,25.3008097 C122.165121,25.3008097 121.194624,24.2905415 121.194624,22.6986927 C121.194624,21.0286335 121.544167,19.2803637 122.010029,17.4944588 C122.709116,17.7267381 123.872302,17.8043606 124.299979,17.8043606 L124.299979,17.8043606 Z M116.817401,10.7360112 C116.817401,17.1063464 109.637956,26 103.352637,26 C100.63736,26 99.8225424,24.6792419 99.8225424,22.9709594 C99.8225424,22.3887909 99.938861,21.5331795 100.054592,20.9915864 L99.9776339,20.9915864 C97.1836366,24.9897318 95.5921861,26 92.4104601,26 C90.3543225,26 89.2669195,24.6792419 89.2669195,22.9709594 C89.2669195,22.2717691 89.6182253,20.9127878 89.7715544,20.4841001 L93.1471448,9.3758538 L90.7414639,9.3758538 L90.8977303,8.6766635 L94.8948618,8.6766635 C96.7565475,8.6766635 97.6876841,8.36499751 98.4631417,7.8228163 L94.2739082,21.6502013 C94.0007357,22.5040485 93.6911401,23.3202606 93.6911401,23.7083729 C93.6911401,24.1746958 94.0412709,24.6022074 94.6610496,24.6022074 C97.1442763,24.6022074 99.8601403,20.795766 100.675546,18.2312842 L103.624634,8.6766635 L108.474769,8.6766635 L104.595131,21.8813046 C104.244413,23.0103587 104.013538,23.6701497 104.013538,24.0194509 C104.013538,24.6410187 104.323134,24.8356629 105.059819,24.8356629 C108.512955,24.8356629 115.18659,17.9596056 115.18659,13.9602841 C115.18659,13.0664495 114.761263,12.987651 114.099774,12.7547836 C112.859042,12.3666712 112.004276,11.4340254 112.004276,10.3473108 C112.004276,8.87013163 112.89664,7.8228163 114.371184,7.8228163 C115.807543,7.8228163 116.817401,8.83190845 116.817401,10.7365993 L116.817401,10.7360112 Z M86.1274911,19.6878817 L86.4858465,19.6878817 L86.4858465,25.5519066 L86.1274911,25.5519066 C86.0317339,25.1931967 85.7426997,24.5716289 85.2427645,24.5716289 C84.4755314,24.5716289 83.3975279,25.9359027 80.5289222,25.9359027 C75.7945186,25.9359027 72.9717354,21.7001855 72.9717354,17.41272 C72.9717354,13.1523047 75.9360983,8.3144253 80.8396927,8.3144253 C82.5615611,8.3144253 84.1906095,9.53639119 85.1940047,9.53639119 C85.6980521,9.53639119 85.9583004,9.31998914 85.9817991,8.81603112 L86.412413,8.81603112 L86.412413,14.4689465 L85.9817991,14.4689465 C85.599945,12.0256028 83.568481,8.74546524 80.8396927,8.74546524 C78.4257872,8.74546524 76.9894282,11.0200389 76.9894282,17.1263401 C76.9894282,22.9444972 78.0409957,25.5060388 80.7691966,25.5060388 C83.8534029,25.5060388 85.6481173,22.4399511 85.9817991,20.4999774 L86.1274911,19.6884697 L86.1274911,19.6878817 Z M64.4328897,8.69606912 L72.0388364,8.69606912 L72.0388364,9.12887321 L70.1019548,9.12887321 L70.1019548,25.1208667 L72.0388364,25.1208667 L72.0388364,25.5501425 L64.4328897,25.5501425 L64.4328897,25.1208667 L66.3709463,25.1208667 L66.3709463,9.12887321 L64.4328897,9.12887321 L64.4328897,8.69606912 Z M50.5627731,8.69606912 L64.1955527,8.69606912 L64.1955527,13.4622065 L63.7649388,13.4622065 L63.7649388,13.0799747 C63.7649388,10.9965169 62.0172218,9.12828516 58.6457436,9.12828516 L56.2324256,9.12828516 L56.2324256,16.4547881 L57.5935887,16.4547881 C59.5081465,16.4547881 60.6307976,15.5685982 60.6307976,13.4616185 L60.6307976,13.0323427 L61.0625865,13.0323427 L61.0625865,20.5970055 L60.6307976,20.5970055 L60.6307976,20.1659655 C60.6307976,17.9384358 59.6749874,16.885828 57.3292281,16.885828 L56.2324256,16.885828 L56.2324256,25.1208667 L58.6222449,25.1208667 L58.6222449,25.5501425 L50.5627731,25.5501425 L50.5627731,25.1208667 L52.4978923,25.1208667 L52.4978923,9.12887321 L50.5633605,9.12887321 L50.5633605,8.69606912 L50.5627731,8.69606912 Z M41.9293451,8.69606912 L49.5352917,8.69606912 L49.5352917,9.12887321 L47.5978227,9.12887321 L47.5978227,25.1208667 L49.5352917,25.1208667 L49.5352917,25.5501425 L41.9293451,25.5501425 L41.9293451,25.1208667 L43.8662267,25.1208667 L43.8662267,9.12887321 L41.9293451,9.12887321 L41.9293451,8.69606912 Z M39.7756878,19.6878817 L40.1340432,19.6878817 L40.1340432,25.5519066 L39.7756878,25.5519066 C39.6811055,25.1931967 39.3920713,24.5716289 38.8891988,24.5716289 C38.1254905,24.5716289 37.0498369,25.9359027 34.1794688,25.9359027 C29.4427153,25.9359027 26.622282,21.7001855 26.622282,17.41272 C26.622282,13.1523047 29.5866449,8.3144253 34.4896518,8.3144253 C36.2109327,8.3144253 37.8376313,9.53639119 38.8433763,9.53639119 C39.3433115,9.53639119 39.6088469,9.31998914 39.6323457,8.81603112 L40.0617847,8.81603112 L40.0617847,14.4689465 L39.6329331,14.4689465 C39.2504915,12.0256028 37.2166777,8.74546524 34.4896518,8.74546524 C32.0739839,8.74546524 30.6370375,11.0200389 30.6370375,17.1263401 C30.6370375,22.9444972 31.6903674,25.5060388 34.4185682,25.5060388 C37.5027746,25.5060388 39.296314,22.4399511 39.6323457,20.4999774 L39.7756878,19.6884697 L39.7756878,19.6878817 Z M15.8357842,19.7114036 L17.9624179,13.6527344 L18.0094154,13.6527344 L20.0925765,19.7114036 L15.8357842,19.7114036 Z M19.6607876,8.3144253 L19.3012572,8.3144253 L13.7526231,23.6842629 C13.4659388,24.4757769 13.0359123,25.0514769 12.1253371,25.1208667 L11.8169164,25.1208667 L11.8169164,25.5507305 L16.1436174,25.5507305 L16.1436174,25.1214547 L15.4750789,25.1214547 C14.9968801,25.1214547 14.3248168,25.0261908 14.3248168,24.2382051 C14.3248168,23.9724069 14.421749,23.709549 14.4951825,23.517845 L15.6430947,20.1424436 L20.2829161,20.1424436 L22.0265207,25.1208667 L20.1149002,25.1208667 L20.1149002,25.5507305 L27.2420606,25.5507305 L27.2420606,25.1214547 L26.0706496,25.1214547 L19.6607876,8.31383725 L19.6607876,8.3144253 Z M5.67141492,9.12887321 L7.60947146,9.12887321 C10.1908053,9.12887321 10.6684167,10.3008549 10.6684167,13.3422445 C10.6684167,16.166644 9.52109195,17.5556159 6.67481007,17.5556159 C6.34112831,17.5556159 5.95809925,17.5085719 5.67141492,17.4362419 L5.67141492,9.12887321 Z M8.25333626,17.9872439 C11.8639139,17.9872439 14.6843472,16.0960782 14.6843472,13.1975845 C14.6843472,10.253811 12.7251418,8.69606912 8.53943312,8.69606912 L0,8.69606912 L0,9.12887321 L1.9368816,9.12887321 L1.9368816,25.1208667 L0,25.1208667 L0,25.5501425 L8.03538568,25.5501425 L8.03538568,25.1208667 L5.66906505,25.1208667 L5.66906505,17.8913919 C6.38636334,17.9619578 7.24759125,17.9872439 8.25333626,17.9872439 Z" id="Shape"></path>
                </g>
            </g>
        </g>
    </g>
</svg>